<?xml version="1.0" standalone="no"?><!DOCTYPE svg PUBLIC "-//W3C//DTD SVG 1.1//EN" "http://www.w3.org/Graphics/SVG/1.1/DTD/svg11.dtd"><svg t="1575451414839" class="icon" viewBox="0 0 1030 1024" version="1.1" xmlns="http://www.w3.org/2000/svg" p-id="10750" xmlns:xlink="http://www.w3.org/1999/xlink" width="128.75" height="128"><defs><style type="text/css"></style></defs><path d="M1018.418549 128.156387c3.139277 7.017208 5.724565 15.142397 7.571199 24.56023 2.031297 9.417832 2.954614 19.204992 2.954614 29.176814 0 10.156486-2.031297 20.312972-5.909228 30.469458s-10.156486 19.943645-18.651002 29.176814c-9.417832 9.417832-17.727685 17.543021-25.11422 24.56023-7.386535 7.017208-13.849754 13.295763-19.389655 18.651001-6.278555 6.278555-12.187783 11.633793-17.543021 16.435041L723.511129 82.544532c9.417832-8.494516 20.497635-18.835665 33.424072-31.023449 12.926437-12.00312 23.636913-21.605616 32.131428-28.622824 10.89514-8.679179 22.159606-14.588407 33.978063-18.097011C834.678485 1.292644 846.312278-0.184663 857.576744 0.184663c11.264466 0.369327 22.344269 2.215961 32.685418 5.355238 10.525813 3.139277 19.758982 6.647882 27.514844 10.525813 16.435041 8.679179 34.532052 23.636913 54.475698 45.057865 19.758982 21.236289 35.086042 43.580558 46.165845 67.032808zM106.735435 699.320226c4.616585-4.616585 15.696387-15.881051 32.685418-33.424072 17.173694-17.543021 38.594647-39.148637 64.44752-65.00151L635.611359 169.151658l218.826107 219.934087L602.925941 640.781934l-93.624335 94.732315c-31.208111 30.469458-59.276945 58.353629-84.206502 83.652512-24.929557 25.298883-45.611855 46.165845-62.046896 62.600886-16.435041 16.435041-26.037537 25.852873-29.176814 28.068834-7.755862 7.017208-16.804368 14.403744-26.960854 22.159606s-20.682299 14.034417-31.577438 18.651001c-10.89514 5.539901-26.960854 12.187783-48.012479 19.943645-21.051625 7.755862-43.026568 15.327061-66.109491 22.713596-23.082923 7.386535-44.873202 13.849754-65.5555 19.389655s-36.009359 9.048506-46.165846 10.525813c-21.051625 2.400624-35.086042-0.738654-42.103251-9.417832-7.017208-8.494516-9.048506-23.082923-5.909228-43.211232 1.66197-10.89514 5.355238-26.77619 11.079803-47.458489 6.093892-21.420952 12.372447-43.026568 18.651001-64.44752 6.647882-22.159606 13.1111-42.657241 19.389656-61.492906 6.278555-18.651002 11.264466-31.577438 15.142397-38.594647 4.616585-10.89514 9.971823-20.866962 15.881051-29.915467 5.909228-8.494516 14.21908-18.466338 25.11422-29.361478z m354.553692 255.943447c0 35.455369 28.807488 64.262857 64.262857 64.262857 35.455369 0 64.262857-28.807488 64.262857-64.262857 0-35.455369-28.807488-64.262857-64.262857-64.262857-35.640033 0-64.262857 28.807488-64.262857 64.262857z m185.032708 0c0 35.455369 28.807488 64.262857 64.262857 64.262857 35.455369 0 64.262857-28.807488 64.262857-64.262857 0-35.455369-28.807488-64.262857-64.262857-64.262857-35.455369 0-64.262857 28.807488-64.262857 64.262857z m185.217372 0c0 35.455369 28.807488 64.262857 64.262857 64.262857 35.455369 0 64.262857-28.807488 64.262857-64.262857 0-35.455369-28.807488-64.262857-64.262857-64.262857-35.455369 0-64.262857 28.807488-64.262857 64.262857z m0 0" p-id="10751" fill="#00aaff"></path></svg>